<svg xmlns="http://www.w3.org/2000/svg" width="367.633" height="169.3" viewBox="0 0 367.633 169.3">
  <g id="Grupo_1" data-name="Grupo 1" transform="translate(-79.51 -235.136)">
    <path id="Trazado_22" data-name="Trazado 22" d="M932.384,307.226c-9.737-1.367-7.65,14.972-7.65,14.972l95.137,51.374,17.759,57.717a408.1,408.1,0,0,0,87.215,29.685c49.63,10.782,111.305,13.444,111.305,13.444l53.277-53.911s-64.456-29.519-129.942-44.424-132-15.2-132-15.2S942.121,308.593,932.384,307.226Z" transform="translate(-844 -71)" fill="none" stroke="#707070" stroke-width="4"/>
    <path id="Trazado_23" data-name="Trazado 23" d="M1061.733,355.814s57.558.159,117.97,13.319,123.679,39.323,123.679,39.323" transform="translate(-873 -54)" fill="none" stroke="#707070" stroke-width="2"/>
    <text id="The_Chef" data-name="The Chef" transform="matrix(0.978, 0.208, -0.208, 0.978, 229, 345)" fill="#000" font-size="29" font-family="SegoeScript, Segoe Script"><tspan x="0" y="0">The Chef</tspan></text>
  </g>
</svg>
